<svg width="64" height="64" viewBox="0 0 64 64" fill="none" xmlns="http://www.w3.org/2000/svg">
<circle cx="32" cy="32" r="32" fill="white"/>
<path d="M46.5234 31.6406C46.5234 34.7969 46 37.5547 44.9531 39.9141C43.9062 42.2578 42.4609 44.1406 40.6172 45.5625L46.125 49.9219L41.0391 54.2344L33.7031 48.3281C33.0156 48.4219 32.3281 48.4688 31.6406 48.4688C28.7344 48.4688 26.1562 47.7969 23.9062 46.4531C21.6562 45.1094 19.8984 43.1875 18.6328 40.6875C17.3828 38.1875 16.7344 35.3125 16.6875 32.0625V30.2578C16.6875 26.8984 17.2969 23.9453 18.5156 21.3984C19.75 18.8516 21.5 16.8828 23.7656 15.4922C26.0469 14.1016 28.6562 13.4062 31.5938 13.4062C34.4844 13.4062 37.0625 14.0937 39.3281 15.4688C41.5938 16.8438 43.3516 18.8047 44.6016 21.3516C45.8672 23.8828 46.5078 26.7891 46.5234 30.0703V31.6406ZM38.1562 30.2109C38.1562 26.8203 37.5859 24.25 36.4453 22.5C35.3203 20.7344 33.7031 19.8516 31.5938 19.8516C29.4219 19.8516 27.7891 20.7188 26.6953 22.4531C25.6016 24.1875 25.0469 26.7266 25.0312 30.0703V31.6406C25.0312 35 25.5859 37.5781 26.6953 39.375C27.8047 41.1562 29.4531 42.0469 31.6406 42.0469C33.7344 42.0469 35.3359 41.1641 36.4453 39.3984C37.5703 37.6328 38.1406 35.0938 38.1562 31.7812V30.2109Z" fill="black"/>
</svg>
